<svg width="16" height="16" viewBox="0 0 16 16" fill="none" xmlns="http://www.w3.org/2000/svg">
<path fill-rule="evenodd" clip-rule="evenodd" d="M9.58802 2.21498C9.07117 2.07028 8.53675 1.99792 8.00002 1.99998C7.44602 1.99998 6.91802 2.07298 6.41202 2.21498L6.40602 2.21698C5.89202 2.35798 5.41602 2.55898 4.97402 2.81798C4.08594 3.34642 3.34517 4.08993 2.82002 4.97998L2.81802 4.98398C2.55421 5.43085 2.34982 5.91023 2.21002 6.40998C2.06902 6.92816 1.99838 7.46295 2.00002 7.99998C2.00002 8.55498 2.07002 9.08498 2.21002 9.59097C2.48952 10.593 3.02268 11.5061 3.75802 12.242C4.12802 12.607 4.53202 12.919 4.97402 13.182C5.42434 13.4455 5.90661 13.6502 6.40902 13.791C6.92765 13.9313 7.46274 14.0016 8.00002 14C8.55502 14 9.08502 13.93 9.59102 13.79C10.106 13.645 10.581 13.442 11.017 13.183L11.021 13.181C11.9107 12.6553 12.6539 11.9142 13.182 11.026C13.4448 10.5774 13.6465 10.0958 13.782 9.59398L13.785 9.58798C13.9297 9.07112 14.0021 8.5367 14 7.99998C14 7.44598 13.928 6.91798 13.785 6.41198L13.783 6.40598C13.6477 5.90691 13.4459 5.42829 13.183 4.98298L13.181 4.97898C12.921 4.53638 12.6043 4.12961 12.239 3.76898L12.231 3.76098C11.8704 3.39569 11.4636 3.07902 11.021 2.81898L11.017 2.81698C10.5717 2.55414 10.0931 2.35233 9.59402 2.21698L9.58802 2.21498ZM14.043 11.535C13.4285 12.5691 12.5631 13.4317 11.527 14.043C11.0043 14.3513 10.4436 14.59 9.85902 14.753C9.25328 14.9185 8.62798 15.0016 8.00002 15C7.37178 15.002 6.74614 14.9193 6.14002 14.754C5.55384 14.5897 4.99123 14.3508 4.46602 14.043C3.9513 13.7377 3.47606 13.3703 3.05102 12.949C2.6297 12.524 2.26227 12.0487 1.95702 11.534C1.64949 11.0084 1.41086 10.4455 1.24702 9.85898C1.0815 9.25323 0.998419 8.62793 1.00002 7.99998C1.00002 7.35698 1.08202 6.73798 1.24602 6.13998C1.40944 5.55573 1.64846 4.99532 1.95702 4.47298C2.56853 3.43671 3.43146 2.57137 4.46602 1.95698C4.99086 1.64945 5.55408 1.41273 6.14102 1.25298C6.74604 1.08325 7.37165 0.998112 8.00002 0.999975C8.62874 0.997917 9.2547 1.08306 9.86002 1.25298C11.0283 1.57351 12.0917 2.19605 12.943 3.05798C13.8044 3.90957 14.4266 4.97283 14.747 6.14097C14.916 6.73798 15 7.35698 15 7.99998C15 8.64298 14.916 9.26198 14.747 9.85997C14.5871 10.4466 14.3504 11.0104 14.043 11.535Z" fill="#CCCCCC"/>
</svg>
