<svg width="442" height="293" viewBox="0 0 442 293" fill="none"
  xmlns="http://www.w3.org/2000/svg">
  <style>
    /* Use CSS custom properties for theme-configurable colors */
    :root {
      --codacy-primary: #007bff;
      --codacy-secondary: #6c757d;
      --codacy-background: var(--vscode-editor-background, #1e1e1e);
      --codacy-foreground: var(--vscode-editor-foreground, #d4d4d4);
      --codacy-accent: var(--vscode-button-background, #0e639c);
      --codacy-text-muted: var(--vscode-descriptionForeground, #9ca3af);
      --codacy-border: var(--vscode-panel-border, #3c3c3c);
      --codacy-success: var(--vscode-testing-iconPassed, #73c991);
      --codacy-warning: var(--vscode-testing-iconQueued, #cca700);
      --codacy-error: var(--vscode-testing-iconFailed, #f14c4c);
      --codacy-surface: var(--vscode-sideBar-background, #252526);
      --codacy-panel: var(--vscode-editorWidget-background, #252526);
      --codacy-text: var(--vscode-foreground, #cccccc);
      --codacy-icon-dark: var(--vscode-icon-foreground, #171d26);
      --codacy-icon-muted: var(--vscode-disabledForeground, #858585);
      --codacy-divider: var(--vscode-widget-border, #454545);
      --codacy-checkbox-border: var(--vscode-checkbox-border, #8ab7ff);
      --codacy-checkbox-background: var(--vscode-checkbox-background, #3c3c3c);
      --codacy-checkbox-check: var(--vscode-checkbox-selectBackground, #005df0);
      --codacy-placeholder: var(--vscode-input-placeholderForeground, #585858);
      --codacy-white: #ffffff;
    }
  </style>

  <g clip-path="url(#clip0_92_9202)" filter="url(#filter0_d_92_9202)">
    <rect width="410" height="261" transform="translate(16 14)" fill="var(--codacy-surface)"/>
    <path d="M16 14H133C135.209 14 137 15.7909 137 18V46H16V14Z" fill="var(--codacy-panel)"/>
    <rect x="32" y="22" width="16" height="16" rx="8" fill="var(--codacy-icon-dark)"/>
    <path d="M36.5231 29.0026C36.7869 28.0182 37.4281 27.1784 38.3051 26.6683L37.4849 25.2407C36.2324 25.97 35.3178 27.1697 34.9414 28.5759L36.5231 29.0026Z" fill="var(--codacy-white)"/>
    <path d="M39.2263 26.2842C39.5479 26.1979 39.88 26.1543 40.2131 26.1543V24.5066C39.7366 24.5066 39.2629 24.5677 38.8027 24.6909L39.2263 26.2842Z" fill="var(--codacy-white)"/>
    <path d="M41.2075 26.2853C42.1837 26.552 43.0155 27.1969 43.5209 28.0804L44.9389 27.2561C44.2159 25.9953 43.0261 25.074 41.6311 24.6948L41.2075 26.2863V26.2853Z" fill="var(--codacy-white)"/>
    <path d="M34.7566 29.9995C34.7566 30.4786 34.8182 30.9567 34.9405 31.4193L36.5222 30.9936C36.4355 30.6696 36.3922 30.3351 36.3932 29.9995H34.7566Z" fill="var(--codacy-white)"/>
    <path d="M35.4873 32.7479C35.7251 33.162 36.0158 33.5441 36.3528 33.8826L37.5147 32.7188C37.2789 32.4812 37.0748 32.2136 36.9073 31.9236L35.4873 32.7479Z" fill="var(--codacy-white)"/>
    <path d="M37.4849 34.7584C38.3128 35.2413 39.2524 35.4954 40.2093 35.4935V33.8458C39.5402 33.8458 38.8827 33.6683 38.3041 33.3308L37.4858 34.7584H37.4849Z" fill="var(--codacy-white)"/>
    <path d="M43.5201 31.9275C43.0128 32.8081 42.1791 33.4511 41.2029 33.7148L41.6265 35.3082C43.0224 34.93 44.2123 34.0106 44.9381 32.7518L43.5211 31.9275H43.5201Z" fill="var(--codacy-white)"/>
    <path d="M45.5514 31.4174C45.8036 30.4854 45.8075 29.502 45.5639 28.5681L43.9774 28.9948C44.1478 29.6494 44.1439 30.337 43.9668 30.9897L45.5514 31.4174Z" fill="var(--codacy-white)"/>
    <path d="M60.5703 34.2109C59.7695 34.2109 59.0781 34.0312 58.4961 33.6719C57.918 33.3125 57.4707 32.8027 57.1543 32.1426C56.8418 31.4785 56.6855 30.6914 56.6855 29.7812V29.7695C56.6855 28.8555 56.8418 28.0684 57.1543 27.4082C57.4707 26.7441 57.918 26.2324 58.4961 25.873C59.0742 25.5137 59.7637 25.334 60.5645 25.334C61.2051 25.334 61.7832 25.4609 62.2988 25.7148C62.8145 25.9648 63.2344 26.3125 63.5586 26.7578C63.8828 27.1992 64.0781 27.707 64.1445 28.2812L64.1387 28.3281H62.6621L62.6562 28.2988C62.5859 27.9668 62.4531 27.6777 62.2578 27.4316C62.0625 27.1816 61.8203 26.9883 61.5312 26.8516C61.2422 26.7109 60.9199 26.6406 60.5645 26.6406C60.0879 26.6406 59.6738 26.7676 59.3223 27.0215C58.9707 27.2754 58.6992 27.6367 58.5078 28.1055C58.3203 28.5703 58.2266 29.123 58.2266 29.7637V29.7754C58.2266 30.416 58.3203 30.9707 58.5078 31.4395C58.6992 31.9082 58.9707 32.2695 59.3223 32.5234C59.6738 32.7773 60.0898 32.9043 60.5703 32.9043C60.9297 32.9043 61.252 32.8418 61.5371 32.7168C61.8262 32.5918 62.0664 32.416 62.2578 32.1895C62.4531 31.959 62.5859 31.6895 62.6562 31.3809L62.668 31.3457H64.1445V31.3926C64.0703 31.9551 63.873 32.4473 63.5527 32.8691C63.2324 33.291 62.8184 33.6211 62.3105 33.8594C61.8027 34.0938 61.2227 34.2109 60.5703 34.2109ZM68.4453 34.1289C67.8086 34.1289 67.2598 33.9961 66.7988 33.7305C66.3379 33.4609 65.9824 33.0781 65.7324 32.582C65.4863 32.0859 65.3633 31.4922 65.3633 30.8008V30.7891C65.3633 30.1055 65.4883 29.5156 65.7383 29.0195C65.9883 28.5195 66.3418 28.1367 66.7988 27.8711C67.2598 27.6055 67.8086 27.4727 68.4453 27.4727C69.082 27.4727 69.6289 27.6055 70.0859 27.8711C70.5469 28.1367 70.9023 28.5176 71.1523 29.0137C71.4023 29.5098 71.5273 30.1016 71.5273 30.7891V30.8008C71.5273 31.4922 71.4023 32.0859 71.1523 32.582C70.9062 33.0781 70.5527 33.4609 70.0918 33.7305C69.6348 33.9961 69.0859 34.1289 68.4453 34.1289ZM68.4453 32.9453C68.7812 32.9453 69.0664 32.8613 69.3008 32.6934C69.5391 32.5215 69.7207 32.2773 69.8457 31.9609C69.9707 31.6406 70.0332 31.2559 70.0332 30.8066V30.7949C70.0332 30.3418 69.9707 29.957 69.8457 29.6406C69.7207 29.3203 69.5391 29.0762 69.3008 28.9082C69.0664 28.7363 68.7812 28.6504 68.4453 28.6504C68.1094 28.6504 67.8223 28.7363 67.584 28.9082C67.3457 29.0762 67.1641 29.3203 67.0391 29.6406C66.9141 29.957 66.8516 30.3418 66.8516 30.7949V30.8066C66.8516 31.2559 66.9141 31.6406 67.0391 31.9609C67.1641 32.2812 67.3438 32.5254 67.5781 32.6934C67.8164 32.8613 68.1055 32.9453 68.4453 32.9453ZM75.3008 34.1055C74.7695 34.1055 74.3066 33.9727 73.9121 33.707C73.5176 33.4375 73.2129 33.0547 72.998 32.5586C72.7832 32.0625 72.6758 31.4785 72.6758 30.8066V30.7949C72.6758 30.1152 72.7812 29.5293 72.9922 29.0371C73.207 28.541 73.5098 28.1602 73.9004 27.8945C74.2949 27.625 74.7617 27.4902 75.3008 27.4902C75.5938 27.4902 75.8672 27.5371 76.1211 27.6309C76.375 27.7207 76.5977 27.8496 76.7891 28.0176C76.9844 28.1855 77.1367 28.3848 77.2461 28.6152H77.3516V25.1172H78.8047V34H77.3516V32.998H77.2461C77.1289 33.2285 76.9746 33.4277 76.7832 33.5957C76.5957 33.7598 76.377 33.8867 76.127 33.9766C75.877 34.0625 75.6016 34.1055 75.3008 34.1055ZM75.7578 32.875C76.0898 32.875 76.375 32.793 76.6133 32.6289C76.8555 32.4609 77.041 32.2227 77.1699 31.9141C77.3027 31.6016 77.3691 31.2324 77.3691 30.8066V30.7949C77.3691 30.3652 77.3027 29.9961 77.1699 29.6875C77.041 29.3789 76.8555 29.1406 76.6133 28.9727C76.375 28.8047 76.0898 28.7207 75.7578 28.7207C75.4297 28.7207 75.1445 28.8047 74.9023 28.9727C74.6641 29.1367 74.4805 29.375 74.3516 29.6875C74.2227 29.9961 74.1582 30.3652 74.1582 30.7949V30.8066C74.1582 31.2363 74.2227 31.6055 74.3516 31.9141C74.4805 32.2227 74.6641 32.4609 74.9023 32.6289C75.1406 32.793 75.4258 32.875 75.7578 32.875ZM82.3906 34.1055C81.9883 34.1055 81.627 34.0273 81.3066 33.8711C80.9902 33.7148 80.7402 33.4941 80.5566 33.209C80.377 32.9199 80.2871 32.5801 80.2871 32.1895V32.1777C80.2871 31.7988 80.3809 31.4727 80.5684 31.1992C80.7559 30.9219 81.0312 30.7051 81.3945 30.5488C81.7578 30.3926 82.1992 30.3008 82.7188 30.2734L85.0859 30.127V31.0879L82.9238 31.2285C82.5137 31.252 82.2109 31.3379 82.0156 31.4863C81.8203 31.6348 81.7227 31.8418 81.7227 32.1074V32.1191C81.7227 32.3926 81.8262 32.6055 82.0332 32.7578C82.2441 32.9102 82.5117 32.9863 82.8359 32.9863C83.1289 32.9863 83.3906 32.9277 83.6211 32.8105C83.8516 32.6934 84.0332 32.5352 84.166 32.3359C84.2988 32.1328 84.3652 31.9043 84.3652 31.6504V29.623C84.3652 29.3027 84.2637 29.0586 84.0605 28.8906C83.8574 28.7188 83.5566 28.6328 83.1582 28.6328C82.8262 28.6328 82.5547 28.6914 82.3438 28.8086C82.1328 28.9219 81.9902 29.084 81.916 29.2949L81.9102 29.3184H80.5332L80.5391 29.2656C80.5859 28.9062 80.7266 28.5918 80.9609 28.3223C81.1953 28.0527 81.5059 27.8438 81.8926 27.6953C82.2793 27.5469 82.7246 27.4727 83.2285 27.4727C83.7832 27.4727 84.252 27.5586 84.6348 27.7305C85.0176 27.8984 85.3086 28.1445 85.5078 28.4688C85.707 28.7891 85.8066 29.1738 85.8066 29.623V34H84.3652V33.1211H84.2656C84.1484 33.3242 83.9961 33.5 83.8086 33.6484C83.625 33.7969 83.4141 33.9102 83.1758 33.9883C82.9375 34.0664 82.6758 34.1055 82.3906 34.1055ZM90.3066 34.1289C89.6621 34.1289 89.1113 33.9961 88.6543 33.7305C88.1973 33.4648 87.8477 33.082 87.6055 32.582C87.3633 32.082 87.2422 31.4844 87.2422 30.7891V30.7773C87.2422 30.0859 87.3633 29.4941 87.6055 29.002C87.8477 28.5098 88.1973 28.1328 88.6543 27.8711C89.1113 27.6055 89.6602 27.4727 90.3008 27.4727C90.8516 27.4727 91.3242 27.5684 91.7188 27.7598C92.1172 27.9473 92.4316 28.209 92.6621 28.5449C92.8965 28.877 93.041 29.2656 93.0957 29.7109V29.7344H91.7188L91.7129 29.7168C91.6465 29.4043 91.4941 29.1484 91.2559 28.9492C91.0215 28.75 90.7051 28.6504 90.3066 28.6504C89.9746 28.6504 89.6895 28.7344 89.4512 28.9023C89.2168 29.0703 89.0371 29.3125 88.9121 29.6289C88.7871 29.9453 88.7246 30.3281 88.7246 30.7773V30.7891C88.7246 31.2422 88.7871 31.6309 88.9121 31.9551C89.041 32.2754 89.2227 32.5215 89.457 32.6934C89.6914 32.8613 89.9746 32.9453 90.3066 32.9453C90.6855 32.9453 90.9902 32.8594 91.2207 32.6875C91.4551 32.5156 91.6172 32.2617 91.707 31.9258L91.7188 31.9023L93.0898 31.8965L93.084 31.9492C93.0137 32.3828 92.8613 32.7637 92.627 33.0918C92.3965 33.4199 92.0879 33.6758 91.7012 33.8594C91.3145 34.0391 90.8496 34.1289 90.3066 34.1289ZM95.1699 36.25C95.0801 36.25 94.9863 36.248 94.8887 36.2441C94.7949 36.2402 94.7031 36.2344 94.6133 36.2266V35.1074C94.6719 35.1152 94.7402 35.1191 94.8184 35.1191C94.8965 35.123 94.9727 35.125 95.0469 35.125C95.3477 35.125 95.5879 35.0586 95.7676 34.9258C95.9512 34.7969 96.082 34.5879 96.1602 34.2988L96.2363 34.0059L93.9453 27.5957H95.5391L97.2266 33.2676L96.8281 32.5996H97.332L96.9453 33.2676L98.6328 27.5957H100.168L97.8711 34.1406C97.6875 34.6719 97.4766 35.0918 97.2383 35.4004C97 35.709 96.7129 35.9277 96.377 36.0566C96.0449 36.1855 95.6426 36.25 95.1699 36.25Z" fill="var(--codacy-text)"/>
    <path fill-rule="evenodd" clip-rule="evenodd" d="M123 30.5304L125.735 33.2656L126.266 32.7354L123.53 30.0001L126.266 27.2656L125.735 26.7346L123 29.4699L120.266 26.7346L119.735 27.2656L122.47 30.0001L119.735 32.7346L120.266 33.2656L123 30.5304Z" fill="var(--codacy-icon-muted)"/>
    <circle cx="362.5" cy="30" r="5.5" fill="var(--codacy-success)"/>
    <circle cx="383.5" cy="30" r="5.5" fill="var(--codacy-warning)"/>
    <circle cx="404.5" cy="30" r="5.5" fill="var(--codacy-error)"/>
    <rect width="410" height="229" transform="translate(16 46)" fill="var(--codacy-panel)"/>
    <mask id="path-16-inside-1_92_9202" fill="white">
      <path d="M16 46H426V83H16V46Z"/>
    </mask>
    <path d="M426 83V82H16V83V84H426V83Z" fill="var(--codacy-divider)" mask="url(#path-16-inside-1_92_9202)"/>
    <path d="M34.938 68V61.2915H32.4995V60.2495H38.5796V61.2915H36.1411V68H34.938ZM41.335 68.1128C40.7656 68.1128 40.2733 67.991 39.8579 67.7476C39.4461 67.5041 39.1292 67.1567 38.9072 66.7056C38.6852 66.2508 38.5742 65.7119 38.5742 65.0889V65.0781C38.5742 64.4515 38.6852 63.9126 38.9072 63.4614C39.1328 63.0103 39.4515 62.6629 39.8633 62.4194C40.2786 62.1759 40.7692 62.0542 41.335 62.0542C41.9043 62.0542 42.3949 62.1759 42.8066 62.4194C43.2184 62.6593 43.5353 63.0067 43.7573 63.4614C43.9829 63.9126 44.0957 64.4515 44.0957 65.0781V65.0889C44.0957 65.7119 43.9829 66.2508 43.7573 66.7056C43.5353 67.1567 43.2184 67.5041 42.8066 67.7476C42.3984 67.991 41.9079 68.1128 41.335 68.1128ZM41.335 67.1353C41.668 67.1353 41.9508 67.0547 42.1836 66.8936C42.4163 66.7288 42.5936 66.4943 42.7153 66.1899C42.8371 65.8856 42.8979 65.5186 42.8979 65.0889V65.0781C42.8979 64.6449 42.8371 64.276 42.7153 63.9717C42.5936 63.6673 42.4163 63.4346 42.1836 63.2734C41.9508 63.1087 41.668 63.0264 41.335 63.0264C41.002 63.0264 40.7191 63.1087 40.4863 63.2734C40.2536 63.4346 40.0745 63.6673 39.9492 63.9717C39.8275 64.276 39.7666 64.6449 39.7666 65.0781V65.0889C39.7666 65.5186 39.8275 65.8856 39.9492 66.1899C40.0745 66.4943 40.2536 66.7288 40.4863 66.8936C40.7191 67.0547 41.002 67.1353 41.335 67.1353ZM47.9521 68.1128C47.3828 68.1128 46.8905 67.991 46.4751 67.7476C46.0633 67.5041 45.7464 67.1567 45.5244 66.7056C45.3024 66.2508 45.1914 65.7119 45.1914 65.0889V65.0781C45.1914 64.4515 45.3024 63.9126 45.5244 63.4614C45.75 63.0103 46.0687 62.6629 46.4805 62.4194C46.8958 62.1759 47.3864 62.0542 47.9521 62.0542C48.5215 62.0542 49.012 62.1759 49.4238 62.4194C49.8356 62.6593 50.1525 63.0067 50.3745 63.4614C50.6001 63.9126 50.7129 64.4515 50.7129 65.0781V65.0889C50.7129 65.7119 50.6001 66.2508 50.3745 66.7056C50.1525 67.1567 49.8356 67.5041 49.4238 67.7476C49.0156 67.991 48.5251 68.1128 47.9521 68.1128ZM47.9521 67.1353C48.2852 67.1353 48.568 67.0547 48.8008 66.8936C49.0335 66.7288 49.2108 66.4943 49.3325 66.1899C49.4543 65.8856 49.5151 65.5186 49.5151 65.0889V65.0781C49.5151 64.6449 49.4543 64.276 49.3325 63.9717C49.2108 63.6673 49.0335 63.4346 48.8008 63.2734C48.568 63.1087 48.2852 63.0264 47.9521 63.0264C47.6191 63.0264 47.3363 63.1087 47.1035 63.2734C46.8708 63.4346 46.6917 63.6673 46.5664 63.9717C46.4447 64.276 46.3838 64.6449 46.3838 65.0781V65.0889C46.3838 65.5186 46.4447 65.8856 46.5664 66.1899C46.6917 66.4943 46.8708 66.7288 47.1035 66.8936C47.3363 67.0547 47.6191 67.1353 47.9521 67.1353ZM52.1523 68V59.8789H53.3179V68H52.1523ZM57.1743 68.1128C56.7052 68.1128 56.297 68.0448 55.9497 67.9087C55.6024 67.769 55.3267 67.5775 55.1226 67.334C54.9185 67.0869 54.7985 66.8005 54.7627 66.4746V66.4639H55.9336V66.4746C56.0088 66.693 56.152 66.8703 56.3633 67.0063C56.5745 67.1424 56.8538 67.2104 57.2012 67.2104C57.4411 67.2104 57.6506 67.1764 57.8296 67.1084C58.0122 67.0404 58.1554 66.9455 58.2593 66.8237C58.3631 66.702 58.415 66.5623 58.415 66.4048V66.394C58.415 66.2114 58.3416 66.0575 58.1948 65.9321C58.048 65.8068 57.8063 65.7048 57.4697 65.626L56.5352 65.4111C56.1699 65.3288 55.8674 65.216 55.6274 65.0728C55.3875 64.9295 55.2103 64.7541 55.0957 64.5464C54.9811 64.3351 54.9238 64.0881 54.9238 63.8052V63.7998C54.9238 63.4596 55.0205 63.1589 55.2139 62.8975C55.4072 62.6325 55.674 62.4266 56.0142 62.2798C56.3579 62.1294 56.75 62.0542 57.1904 62.0542C57.6344 62.0542 58.0212 62.124 58.3506 62.2637C58.6836 62.3997 58.9468 62.5895 59.1401 62.833C59.3335 63.0729 59.4481 63.3522 59.4839 63.6709V63.6763H58.3667V63.6655C58.313 63.4614 58.1841 63.2913 57.98 63.1553C57.7795 63.0192 57.5145 62.9512 57.1851 62.9512C56.9738 62.9512 56.7858 62.9852 56.6211 63.0532C56.4564 63.1177 56.3257 63.209 56.229 63.3271C56.1359 63.4417 56.0894 63.5778 56.0894 63.7354V63.7461C56.0894 63.8678 56.1198 63.9753 56.1807 64.0684C56.2451 64.1579 56.3454 64.2384 56.4814 64.3101C56.6175 64.3781 56.793 64.439 57.0078 64.4927L57.937 64.7021C58.4956 64.8346 58.911 65.0262 59.1831 65.2769C59.4588 65.5275 59.5967 65.8641 59.5967 66.2866V66.2974C59.5967 66.6554 59.491 66.9723 59.2798 67.248C59.0685 67.5202 58.7803 67.7332 58.415 67.8872C58.0534 68.0376 57.6398 68.1128 57.1743 68.1128ZM65.5801 68.0967C65.2113 68.0967 64.88 68.0269 64.5864 67.8872C64.2964 67.744 64.0672 67.5417 63.8989 67.2803C63.7306 67.0189 63.6465 66.7127 63.6465 66.3618V66.3511C63.6465 66.0002 63.7306 65.7012 63.8989 65.4541C64.0708 65.207 64.3179 65.0137 64.6401 64.874C64.966 64.7308 65.3599 64.6449 65.8218 64.6162L67.9756 64.4873V65.3091L65.9829 65.438C65.5819 65.4631 65.2865 65.549 65.0967 65.6958C64.9069 65.839 64.812 66.0413 64.812 66.3027V66.3135C64.812 66.5785 64.9141 66.7879 65.1182 66.9419C65.3223 67.0923 65.5801 67.1675 65.8916 67.1675C66.1816 67.1675 66.4395 67.1102 66.665 66.9956C66.8942 66.8774 67.0732 66.7199 67.2021 66.5229C67.3311 66.3224 67.3955 66.0968 67.3955 65.8462V64.0093C67.3955 63.687 67.2952 63.4417 67.0947 63.2734C66.8978 63.1016 66.6042 63.0156 66.2139 63.0156C65.888 63.0156 65.6213 63.0729 65.4136 63.1875C65.2095 63.3021 65.0734 63.4632 65.0054 63.6709L64.9946 63.687H63.8721L63.8774 63.6494C63.924 63.3271 64.0511 63.0479 64.2588 62.8115C64.4701 62.5716 64.7458 62.3854 65.0859 62.2529C65.4297 62.1204 65.8218 62.0542 66.2622 62.0542C66.7528 62.0542 67.1681 62.133 67.5083 62.2905C67.8521 62.4445 68.1117 62.6683 68.2871 62.9619C68.4661 63.252 68.5557 63.6011 68.5557 64.0093V68H67.3955V67.1729H67.3096C67.195 67.3698 67.0518 67.5381 66.8799 67.6777C66.708 67.8138 66.5129 67.9176 66.2944 67.9893C66.076 68.0609 65.8379 68.0967 65.5801 68.0967ZM70.1992 68V62.167H71.3647V63.0479H71.4561C71.5993 62.7363 71.8105 62.4928 72.0898 62.3174C72.3691 62.1419 72.7218 62.0542 73.1479 62.0542C73.8032 62.0542 74.3045 62.2422 74.6519 62.6182C74.9992 62.9941 75.1729 63.5295 75.1729 64.2241V68H74.002V64.498C74.002 64.0111 73.8999 63.6494 73.6958 63.4131C73.4953 63.1732 73.1802 63.0532 72.7505 63.0532C72.4676 63.0532 72.2223 63.1159 72.0146 63.2412C71.807 63.363 71.6458 63.5384 71.5312 63.7676C71.4202 63.9932 71.3647 64.2635 71.3647 64.5786V68H70.1992ZM78.9219 68.0967C78.4349 68.0967 78.0088 67.9749 77.6436 67.7314C77.2819 67.4844 77.0008 67.1353 76.8003 66.6841C76.6034 66.2329 76.5049 65.7012 76.5049 65.0889V65.0781C76.5049 64.4622 76.6034 63.9287 76.8003 63.4775C76.9972 63.0264 77.2765 62.679 77.6382 62.4355C77.9998 62.1885 78.4277 62.0649 78.9219 62.0649C79.1904 62.0649 79.4411 62.1079 79.6738 62.1938C79.9066 62.2762 80.1125 62.3944 80.2915 62.5483C80.4705 62.6987 80.612 62.8796 80.7158 63.0908H80.8018V59.8789H81.9727V68H80.8018V67.0815H80.7158C80.6012 67.2928 80.4562 67.4754 80.2808 67.6294C80.1053 67.7798 79.903 67.8962 79.6738 67.9785C79.4447 68.0573 79.194 68.0967 78.9219 68.0967ZM79.2549 67.0977C79.5771 67.0977 79.8564 67.0171 80.0928 66.856C80.3291 66.6948 80.5099 66.4639 80.6353 66.1631C80.7606 65.8587 80.8232 65.5007 80.8232 65.0889V65.0781C80.8232 64.6628 80.7588 64.3047 80.6299 64.0039C80.5046 63.7031 80.3237 63.4722 80.0874 63.311C79.8547 63.1463 79.5771 63.064 79.2549 63.064C78.9326 63.064 78.6533 63.1463 78.417 63.311C78.1842 63.4722 78.0052 63.7031 77.8799 64.0039C77.7581 64.3011 77.6973 64.6592 77.6973 65.0781V65.0889C77.6973 65.5042 77.7581 65.8623 77.8799 66.1631C78.0052 66.4639 78.1842 66.6948 78.417 66.856C78.6533 67.0171 78.9326 67.0977 79.2549 67.0977ZM87.4351 65.3521V64.3423H89.5513C90.0741 64.3423 90.4787 64.208 90.7651 63.9395C91.0552 63.6673 91.2002 63.2913 91.2002 62.8115V62.8008C91.2002 62.3138 91.0552 61.936 90.7651 61.6675C90.4787 61.3989 90.0741 61.2646 89.5513 61.2646H87.4351V60.2495H89.8521C90.3605 60.2495 90.8063 60.3569 91.1895 60.5718C91.5762 60.783 91.8787 61.0802 92.0972 61.4634C92.3156 61.8429 92.4248 62.2852 92.4248 62.79V62.8008C92.4248 63.3057 92.3156 63.7515 92.0972 64.1382C91.8787 64.5213 91.5762 64.8203 91.1895 65.0352C90.8063 65.2464 90.3605 65.3521 89.8521 65.3521H87.4351ZM86.8335 68V60.2495H88.0366V68H86.8335ZM95.2285 68.0967C94.8597 68.0967 94.5285 68.0269 94.2349 67.8872C93.9448 67.744 93.7157 67.5417 93.5474 67.2803C93.3791 67.0189 93.2949 66.7127 93.2949 66.3618V66.3511C93.2949 66.0002 93.3791 65.7012 93.5474 65.4541C93.7192 65.207 93.9663 65.0137 94.2886 64.874C94.6144 64.7308 95.0083 64.6449 95.4702 64.6162L97.624 64.4873V65.3091L95.6313 65.438C95.2303 65.4631 94.9349 65.549 94.7451 65.6958C94.5553 65.839 94.4604 66.0413 94.4604 66.3027V66.3135C94.4604 66.5785 94.5625 66.7879 94.7666 66.9419C94.9707 67.0923 95.2285 67.1675 95.54 67.1675C95.8301 67.1675 96.0879 67.1102 96.3135 66.9956C96.5426 66.8774 96.7217 66.7199 96.8506 66.5229C96.9795 66.3224 97.0439 66.0968 97.0439 65.8462V64.0093C97.0439 63.687 96.9437 63.4417 96.7432 63.2734C96.5462 63.1016 96.2526 63.0156 95.8623 63.0156C95.5365 63.0156 95.2697 63.0729 95.062 63.1875C94.8579 63.3021 94.7218 63.4632 94.6538 63.6709L94.6431 63.687H93.5205L93.5259 63.6494C93.5724 63.3271 93.6995 63.0479 93.9072 62.8115C94.1185 62.5716 94.3942 62.3854 94.7344 62.2529C95.0781 62.1204 95.4702 62.0542 95.9106 62.0542C96.4012 62.0542 96.8166 62.133 97.1567 62.2905C97.5005 62.4445 97.7601 62.6683 97.9355 62.9619C98.1146 63.252 98.2041 63.6011 98.2041 64.0093V68H97.0439V67.1729H96.958C96.8434 67.3698 96.7002 67.5381 96.5283 67.6777C96.3564 67.8138 96.1613 67.9176 95.9429 67.9893C95.7244 68.0609 95.4863 68.0967 95.2285 68.0967ZM102.05 68.0376C101.412 68.0376 100.951 67.9159 100.664 67.6724C100.381 67.4253 100.24 67.0225 100.24 66.4639V63.0854H99.3267V62.167H100.24V60.6953H101.432V62.167H102.684V63.0854H101.432V66.1792C101.432 66.4943 101.495 66.7217 101.62 66.8613C101.745 66.9974 101.953 67.0654 102.243 67.0654C102.329 67.0654 102.403 67.0636 102.463 67.0601C102.528 67.0565 102.601 67.0511 102.684 67.0439V67.9785C102.59 67.9928 102.49 68.0054 102.383 68.0161C102.275 68.0304 102.164 68.0376 102.05 68.0376ZM106.271 68.0376C105.634 68.0376 105.172 67.9159 104.886 67.6724C104.603 67.4253 104.461 67.0225 104.461 66.4639V63.0854H103.548V62.167H104.461V60.6953H105.654V62.167H106.905V63.0854H105.654V66.1792C105.654 66.4943 105.716 66.7217 105.842 66.8613C105.967 66.9974 106.175 67.0654 106.465 67.0654C106.551 67.0654 106.624 67.0636 106.685 67.0601C106.75 67.0565 106.823 67.0511 106.905 67.0439V67.9785C106.812 67.9928 106.712 68.0054 106.604 68.0161C106.497 68.0304 106.386 68.0376 106.271 68.0376ZM110.654 68.1128C110.085 68.1128 109.596 67.991 109.188 67.7476C108.78 67.5005 108.465 67.1514 108.243 66.7002C108.024 66.249 107.915 65.7155 107.915 65.0996V65.0942C107.915 64.4855 108.024 63.9538 108.243 63.499C108.465 63.0443 108.776 62.6898 109.177 62.4355C109.582 62.1813 110.055 62.0542 110.595 62.0542C111.139 62.0542 111.607 62.1759 111.997 62.4194C112.391 62.6629 112.694 63.0049 112.905 63.4453C113.116 63.8822 113.222 64.3942 113.222 64.9814V65.3896H108.506V64.5571H112.642L112.083 65.3306V64.8633C112.083 64.4479 112.019 64.1042 111.89 63.832C111.764 63.5563 111.591 63.3504 111.369 63.2144C111.147 63.0783 110.891 63.0103 110.601 63.0103C110.311 63.0103 110.051 63.0819 109.822 63.2251C109.596 63.3647 109.417 63.5724 109.285 63.8481C109.156 64.1239 109.091 64.4622 109.091 64.8633V65.3306C109.091 65.7137 109.156 66.0413 109.285 66.3135C109.414 66.5856 109.596 66.7933 109.833 66.9365C110.072 67.0798 110.355 67.1514 110.681 67.1514C110.932 67.1514 111.147 67.1174 111.326 67.0493C111.508 66.9777 111.657 66.89 111.771 66.7861C111.89 66.6823 111.97 66.5802 112.013 66.48L112.035 66.437H113.163L113.152 66.4854C113.102 66.6787 113.014 66.8721 112.889 67.0654C112.763 67.2552 112.597 67.4289 112.389 67.5864C112.185 67.744 111.938 67.8711 111.648 67.9678C111.361 68.0645 111.03 68.1128 110.654 68.1128ZM114.607 68V62.167H115.773V63.0479H115.864C115.968 62.7363 116.151 62.4946 116.412 62.3228C116.677 62.1509 117.003 62.0649 117.39 62.0649C117.486 62.0649 117.581 62.0703 117.674 62.0811C117.767 62.0918 117.843 62.1043 117.9 62.1187V63.1929C117.796 63.1714 117.692 63.1553 117.588 63.1445C117.488 63.1338 117.382 63.1284 117.271 63.1284C116.974 63.1284 116.713 63.1857 116.487 63.3003C116.265 63.4149 116.09 63.576 115.961 63.7837C115.836 63.9878 115.773 64.2313 115.773 64.5142V68H114.607ZM119.108 68V62.167H120.274V63.0479H120.365C120.508 62.7363 120.72 62.4928 120.999 62.3174C121.278 62.1419 121.631 62.0542 122.057 62.0542C122.712 62.0542 123.214 62.2422 123.561 62.6182C123.908 62.9941 124.082 63.5295 124.082 64.2241V68H122.911V64.498C122.911 64.0111 122.809 63.6494 122.605 63.4131C122.404 63.1732 122.089 63.0532 121.66 63.0532C121.377 63.0532 121.132 63.1159 120.924 63.2412C120.716 63.363 120.555 63.5384 120.44 63.7676C120.329 63.9932 120.274 64.2635 120.274 64.5786V68H119.108ZM127.826 68.1128C127.357 68.1128 126.948 68.0448 126.601 67.9087C126.254 67.769 125.978 67.5775 125.774 67.334C125.57 67.0869 125.45 66.8005 125.414 66.4746V66.4639H126.585V66.4746C126.66 66.693 126.803 66.8703 127.015 67.0063C127.226 67.1424 127.505 67.2104 127.853 67.2104C128.092 67.2104 128.302 67.1764 128.481 67.1084C128.664 67.0404 128.807 66.9455 128.911 66.8237C129.014 66.702 129.066 66.5623 129.066 66.4048V66.394C129.066 66.2114 128.993 66.0575 128.846 65.9321C128.699 65.8068 128.458 65.7048 128.121 65.626L127.187 65.4111C126.821 65.3288 126.519 65.216 126.279 65.0728C126.039 64.9295 125.862 64.7541 125.747 64.5464C125.632 64.3351 125.575 64.0881 125.575 63.8052V63.7998C125.575 63.4596 125.672 63.1589 125.865 62.8975C126.059 62.6325 126.325 62.4266 126.666 62.2798C127.009 62.1294 127.401 62.0542 127.842 62.0542C128.286 62.0542 128.673 62.124 129.002 62.2637C129.335 62.3997 129.598 62.5895 129.792 62.833C129.985 63.0729 130.099 63.3522 130.135 63.6709V63.6763H129.018V63.6655C128.964 63.4614 128.835 63.2913 128.631 63.1553C128.431 63.0192 128.166 62.9512 127.836 62.9512C127.625 62.9512 127.437 62.9852 127.272 63.0532C127.108 63.1177 126.977 63.209 126.88 63.3271C126.787 63.4417 126.741 63.5778 126.741 63.7354V63.7461C126.741 63.8678 126.771 63.9753 126.832 64.0684C126.896 64.1579 126.997 64.2384 127.133 64.3101C127.269 64.3781 127.444 64.439 127.659 64.4927L128.588 64.7021C129.147 64.8346 129.562 65.0262 129.834 65.2769C130.11 65.5275 130.248 65.8641 130.248 66.2866V66.2974C130.248 66.6554 130.142 66.9723 129.931 67.248C129.72 67.5202 129.432 67.7332 129.066 67.8872C128.705 68.0376 128.291 68.1128 127.826 68.1128ZM132.531 68.0859C132.309 68.0859 132.121 68.009 131.967 67.855C131.816 67.701 131.741 67.5166 131.741 67.3018C131.741 67.0798 131.816 66.8936 131.967 66.7432C132.121 66.5928 132.309 66.5176 132.531 66.5176C132.756 66.5176 132.944 66.5928 133.095 66.7432C133.245 66.8936 133.32 67.0798 133.32 67.3018C133.32 67.5166 133.245 67.701 133.095 67.855C132.944 68.009 132.756 68.0859 132.531 68.0859ZM132.531 64.0254C132.309 64.0254 132.121 63.9484 131.967 63.7944C131.816 63.6405 131.741 63.4561 131.741 63.2412C131.741 63.0192 131.816 62.833 131.967 62.6826C132.121 62.5322 132.309 62.457 132.531 62.457C132.756 62.457 132.944 62.5322 133.095 62.6826C133.245 62.833 133.32 63.0192 133.32 63.2412C133.32 63.4561 133.245 63.6405 133.095 63.7944C132.944 63.9484 132.756 64.0254 132.531 64.0254Z" fill="var(--codacy-text)"/>
    <mask id="path-19-inside-2_92_9202" fill="white">
      <path d="M16 83H426V131H16V83Z"/>
    </mask>
    <path d="M426 131V130H16V131V132H426V131Z" fill="var(--codacy-divider)" mask="url(#path-19-inside-2_92_9202)"/>
    <path d="M36 99.5H44C45.933 99.5 47.5 101.067 47.5 103V111C47.5 112.933 45.933 114.5 44 114.5H36C34.067 114.5 32.5 112.933 32.5 111V103C32.5 101.067 34.067 99.5 36 99.5Z" fill="var(--codacy-checkbox-background)"/>
    <path d="M36 99.5H44C45.933 99.5 47.5 101.067 47.5 103V111C47.5 112.933 45.933 114.5 44 114.5H36C34.067 114.5 32.5 112.933 32.5 111V103C32.5 101.067 34.067 99.5 36 99.5Z" stroke="var(--codacy-checkbox-border)"/>
    <rect x="64" y="103" width="215" height="8" rx="4" fill="var(--codacy-placeholder)"/>
    <rect x="360" y="103" width="50" height="8" rx="4" fill="var(--codacy-placeholder)"/>
    <mask id="path-24-inside-3_92_9202" fill="white">
      <path d="M16 131H426V179H16V131Z"/>
    </mask>
    <path d="M426 179V178H16V179V180H426V179Z" fill="var(--codacy-divider)" mask="url(#path-24-inside-3_92_9202)"/>
    <path d="M36 147.5H44C45.933 147.5 47.5 149.067 47.5 151V159C47.5 160.933 45.933 162.5 44 162.5H36C34.067 162.5 32.5 160.933 32.5 159V151C32.5 149.067 34.067 147.5 36 147.5Z" fill="var(--codacy-checkbox-background)"/>
    <path d="M36 147.5H44C45.933 147.5 47.5 149.067 47.5 151V159C47.5 160.933 45.933 162.5 44 162.5H36C34.067 162.5 32.5 160.933 32.5 159V151C32.5 149.067 34.067 147.5 36 147.5Z" stroke="var(--codacy-checkbox-border)"/>
    <path fill-rule="evenodd" clip-rule="evenodd" d="M43.6964 151.887C44.0659 152.21 44.1033 152.772 43.7801 153.141L39.4245 158.119C39.2625 158.304 39.031 158.414 38.7851 158.422C38.5393 158.43 38.301 158.336 38.127 158.162L36.2603 156.295C35.9132 155.948 35.9132 155.385 36.2603 155.038C36.6075 154.691 37.1703 154.691 37.5174 155.038L38.7123 156.233L42.4421 151.97C42.7654 151.601 43.327 151.563 43.6964 151.887Z" fill="var(--codacy-checkbox-check)"/>
    <path d="M64.9883 158.5V150.75H67.647C68.4132 150.75 69.0685 150.903 69.6128 151.211C70.1606 151.516 70.5796 151.956 70.8696 152.533C71.1597 153.109 71.3047 153.804 71.3047 154.617V154.627C71.3047 155.44 71.1597 156.137 70.8696 156.717C70.5796 157.293 70.1624 157.736 69.6182 158.043C69.0739 158.348 68.4168 158.5 67.647 158.5H64.9883ZM65.9551 157.63H67.5825C68.159 157.63 68.6514 157.512 69.0596 157.275C69.4678 157.039 69.7793 156.697 69.9941 156.25C70.209 155.802 70.3164 155.265 70.3164 154.638V154.627C70.3164 153.997 70.2072 153.458 69.9888 153.011C69.7739 152.56 69.4624 152.216 69.0542 151.979C68.646 151.74 68.1554 151.62 67.5825 151.62H65.9551V157.63ZM72.8838 158.5V152.71H73.8184V158.5H72.8838ZM73.3564 151.593C73.181 151.593 73.0288 151.53 72.8999 151.405C72.7746 151.276 72.7119 151.124 72.7119 150.948C72.7119 150.769 72.7746 150.617 72.8999 150.492C73.0288 150.366 73.181 150.304 73.3564 150.304C73.5355 150.304 73.6877 150.366 73.813 150.492C73.9383 150.617 74.001 150.769 74.001 150.948C74.001 151.124 73.9383 151.276 73.813 151.405C73.6877 151.53 73.5355 151.593 73.3564 151.593ZM77.5674 158.602C77.1377 158.602 76.7581 158.538 76.4287 158.409C76.0993 158.276 75.8343 158.092 75.6338 157.855C75.4368 157.619 75.3205 157.342 75.2847 157.023H76.2407C76.3195 157.263 76.4735 157.456 76.7026 157.603C76.9318 157.75 77.2308 157.823 77.5996 157.823C77.861 157.823 78.0902 157.786 78.2871 157.71C78.4876 157.632 78.6452 157.526 78.7598 157.394C78.8743 157.257 78.9316 157.102 78.9316 156.926V156.916C78.9316 156.719 78.8529 156.552 78.6953 156.416C78.5378 156.276 78.2799 156.164 77.9219 156.078L77.0249 155.863C76.6632 155.777 76.366 155.666 76.1333 155.53C75.9006 155.39 75.7287 155.22 75.6177 155.02C75.5067 154.815 75.4512 154.576 75.4512 154.3V154.294C75.4512 153.972 75.5443 153.684 75.7305 153.43C75.9202 153.175 76.1781 152.975 76.5039 152.828C76.8298 152.681 77.1968 152.608 77.605 152.608C78.0096 152.608 78.3677 152.672 78.6792 152.801C78.9943 152.927 79.2467 153.106 79.4365 153.338C79.6299 153.571 79.748 153.845 79.791 154.16H78.8726C78.8117 153.931 78.672 153.745 78.4536 153.602C78.2352 153.458 77.9505 153.387 77.5996 153.387C77.3704 153.387 77.1663 153.424 76.9873 153.5C76.8083 153.571 76.6668 153.671 76.563 153.8C76.4591 153.929 76.4072 154.08 76.4072 154.251V154.262C76.4072 154.391 76.4412 154.506 76.5093 154.606C76.5773 154.706 76.6829 154.794 76.8262 154.869C76.9694 154.944 77.1538 155.011 77.3794 155.068L78.271 155.283C78.8153 155.415 79.2199 155.605 79.4849 155.852C79.7534 156.099 79.8877 156.43 79.8877 156.846V156.856C79.8877 157.2 79.7856 157.505 79.5815 157.77C79.3774 158.031 79.0999 158.235 78.749 158.382C78.4017 158.529 78.0078 158.602 77.5674 158.602ZM82.9277 158.602C82.5625 158.602 82.2331 158.532 81.9395 158.393C81.6494 158.253 81.4185 158.054 81.2466 157.796C81.0783 157.539 80.9941 157.234 80.9941 156.883V156.873C80.9941 156.529 81.0765 156.235 81.2412 155.992C81.4059 155.745 81.6458 155.551 81.9609 155.412C82.276 155.272 82.6574 155.19 83.105 155.165L85.2319 155.036V155.782L83.2178 155.911C82.7773 155.936 82.4551 156.028 82.251 156.185C82.0505 156.343 81.9502 156.565 81.9502 156.851V156.862C81.9502 157.155 82.0612 157.385 82.2832 157.549C82.5052 157.71 82.7845 157.791 83.1211 157.791C83.4398 157.791 83.7227 157.728 83.9697 157.603C84.2168 157.474 84.4102 157.3 84.5498 157.082C84.693 156.864 84.7646 156.617 84.7646 156.341V154.536C84.7646 154.178 84.6554 153.906 84.437 153.72C84.2222 153.53 83.8981 153.435 83.4648 153.435C83.1175 153.435 82.8328 153.498 82.6108 153.623C82.3888 153.745 82.2402 153.918 82.165 154.144L82.1597 154.16H81.2251L81.2305 154.128C81.2806 153.824 81.4059 153.559 81.6064 153.333C81.8105 153.104 82.0737 152.927 82.396 152.801C82.7183 152.672 83.0853 152.608 83.4971 152.608C83.9697 152.608 84.369 152.685 84.6948 152.839C85.0243 152.993 85.2731 153.215 85.4414 153.505C85.6133 153.791 85.6992 154.135 85.6992 154.536V158.5H84.7646V157.646H84.6787C84.557 157.85 84.4084 158.024 84.2329 158.167C84.061 158.31 83.8659 158.419 83.6475 158.495C83.429 158.566 83.1891 158.602 82.9277 158.602ZM87.4609 158.5V150.411H88.3955V158.5H87.4609ZM90.2432 158.5V150.411H91.1777V158.5H90.2432ZM95.3511 158.602C94.8032 158.602 94.3288 158.482 93.9277 158.242C93.5303 157.999 93.2223 157.653 93.0039 157.206C92.7891 156.758 92.6816 156.226 92.6816 155.61V155.6C92.6816 154.98 92.7891 154.447 93.0039 153.999C93.2223 153.551 93.5303 153.208 93.9277 152.968C94.3288 152.728 94.8032 152.608 95.3511 152.608C95.9025 152.608 96.377 152.728 96.7744 152.968C97.1719 153.208 97.478 153.551 97.6929 153.999C97.9113 154.447 98.0205 154.98 98.0205 155.6V155.61C98.0205 156.226 97.9113 156.758 97.6929 157.206C97.478 157.653 97.1719 157.999 96.7744 158.242C96.377 158.482 95.9025 158.602 95.3511 158.602ZM95.3511 157.775C95.7163 157.775 96.026 157.689 96.2803 157.517C96.5345 157.345 96.7279 157.098 96.8604 156.776C96.9964 156.454 97.0645 156.065 97.0645 155.61V155.6C97.0645 155.141 96.9964 154.751 96.8604 154.429C96.7279 154.106 96.5345 153.861 96.2803 153.693C96.026 153.521 95.7163 153.435 95.3511 153.435C94.9858 153.435 94.6761 153.521 94.4219 153.693C94.1676 153.861 93.9725 154.106 93.8364 154.429C93.7039 154.751 93.6377 155.141 93.6377 155.6V155.61C93.6377 156.065 93.7039 156.454 93.8364 156.776C93.9725 157.098 94.1676 157.345 94.4219 157.517C94.6761 157.689 94.9858 157.775 95.3511 157.775ZM100.373 158.5L98.751 152.71H99.6855L100.824 157.34H100.91L102.205 152.71H103.091L104.385 157.34H104.471L105.61 152.71H106.539L104.917 158.5H103.977L102.683 154.021H102.597L101.308 158.5H100.373ZM112.807 158.602C112.37 158.602 112.003 158.52 111.706 158.355C111.409 158.187 111.185 157.943 111.035 157.625C110.888 157.302 110.814 156.914 110.814 156.459V152.71H111.749V156.233C111.749 156.753 111.849 157.139 112.05 157.394C112.254 157.648 112.587 157.775 113.049 157.775C113.303 157.775 113.527 157.737 113.72 157.662C113.917 157.587 114.082 157.479 114.214 157.34C114.347 157.197 114.445 157.025 114.51 156.824C114.578 156.62 114.612 156.391 114.612 156.137V152.71H115.546V158.5H114.612V157.635H114.526C114.433 157.839 114.306 158.015 114.145 158.162C113.983 158.305 113.79 158.414 113.564 158.489C113.342 158.564 113.09 158.602 112.807 158.602ZM117.292 158.5V152.71H118.227V153.58H118.312C118.459 153.272 118.671 153.034 118.946 152.866C119.222 152.694 119.573 152.608 119.999 152.608C120.651 152.608 121.15 152.794 121.498 153.167C121.848 153.535 122.024 154.063 122.024 154.751V158.5H121.089V154.977C121.089 154.454 120.978 154.067 120.756 153.816C120.538 153.562 120.198 153.435 119.736 153.435C119.428 153.435 119.161 153.501 118.936 153.634C118.71 153.766 118.535 153.954 118.409 154.198C118.287 154.441 118.227 154.733 118.227 155.073V158.5H117.292ZM125.655 158.602C125.218 158.602 124.851 158.52 124.554 158.355C124.257 158.187 124.033 157.943 123.882 157.625C123.736 157.302 123.662 156.914 123.662 156.459V152.71H124.597V156.233C124.597 156.753 124.697 157.139 124.897 157.394C125.102 157.648 125.435 157.775 125.896 157.775C126.151 157.775 126.375 157.737 126.568 157.662C126.765 157.587 126.93 157.479 127.062 157.34C127.194 157.197 127.293 157.025 127.357 156.824C127.425 156.62 127.459 156.391 127.459 156.137V152.71H128.394V158.5H127.459V157.635H127.374C127.28 157.839 127.153 158.015 126.992 158.162C126.831 158.305 126.638 158.414 126.412 158.489C126.19 158.564 125.938 158.602 125.655 158.602ZM132.127 158.602C131.697 158.602 131.318 158.538 130.988 158.409C130.659 158.276 130.394 158.092 130.193 157.855C129.996 157.619 129.88 157.342 129.844 157.023H130.8C130.879 157.263 131.033 157.456 131.262 157.603C131.491 157.75 131.79 157.823 132.159 157.823C132.421 157.823 132.65 157.786 132.847 157.71C133.047 157.632 133.205 157.526 133.319 157.394C133.434 157.257 133.491 157.102 133.491 156.926V156.916C133.491 156.719 133.412 156.552 133.255 156.416C133.097 156.276 132.84 156.164 132.481 156.078L131.584 155.863C131.223 155.777 130.926 155.666 130.693 155.53C130.46 155.39 130.288 155.22 130.177 155.02C130.066 154.815 130.011 154.576 130.011 154.3V154.294C130.011 153.972 130.104 153.684 130.29 153.43C130.48 153.175 130.738 152.975 131.063 152.828C131.389 152.681 131.756 152.608 132.165 152.608C132.569 152.608 132.927 152.672 133.239 152.801C133.554 152.927 133.806 153.106 133.996 153.338C134.189 153.571 134.308 153.845 134.351 154.16H133.432C133.371 153.931 133.232 153.745 133.013 153.602C132.795 153.458 132.51 153.387 132.159 153.387C131.93 153.387 131.726 153.424 131.547 153.5C131.368 153.571 131.226 153.671 131.123 153.8C131.019 153.929 130.967 154.08 130.967 154.251V154.262C130.967 154.391 131.001 154.506 131.069 154.606C131.137 154.706 131.243 154.794 131.386 154.869C131.529 154.944 131.713 155.011 131.939 155.068L132.831 155.283C133.375 155.415 133.779 155.605 134.044 155.852C134.313 156.099 134.447 156.43 134.447 156.846V156.856C134.447 157.2 134.345 157.505 134.141 157.77C133.937 158.031 133.66 158.235 133.309 158.382C132.961 158.529 132.567 158.602 132.127 158.602ZM138.261 158.602C137.709 158.602 137.235 158.48 136.837 158.237C136.444 157.993 136.139 157.65 135.924 157.206C135.713 156.758 135.607 156.232 135.607 155.626V155.621C135.607 155.023 135.713 154.499 135.924 154.047C136.139 153.596 136.442 153.243 136.832 152.989C137.222 152.735 137.679 152.608 138.202 152.608C138.728 152.608 139.179 152.73 139.555 152.973C139.935 153.217 140.225 153.557 140.425 153.994C140.629 154.427 140.731 154.932 140.731 155.508V155.874H136.091V155.127H140.253L139.792 155.809V155.438C139.792 154.984 139.723 154.61 139.587 154.316C139.451 154.022 139.263 153.804 139.023 153.661C138.784 153.514 138.508 153.44 138.196 153.44C137.885 153.44 137.605 153.517 137.358 153.671C137.115 153.822 136.922 154.046 136.778 154.343C136.635 154.64 136.563 155.005 136.563 155.438V155.809C136.563 156.221 136.633 156.574 136.773 156.867C136.913 157.157 137.111 157.381 137.369 157.539C137.627 157.693 137.931 157.77 138.282 157.77C138.544 157.77 138.771 157.734 138.964 157.662C139.158 157.59 139.317 157.499 139.442 157.388C139.568 157.277 139.655 157.164 139.706 157.05L139.727 157.001H140.662L140.651 157.044C140.601 157.241 140.511 157.433 140.382 157.619C140.257 157.802 140.094 157.968 139.894 158.119C139.693 158.265 139.455 158.384 139.179 158.473C138.907 158.559 138.601 158.602 138.261 158.602ZM144.319 158.602C143.832 158.602 143.406 158.479 143.041 158.231C142.676 157.984 142.393 157.637 142.192 157.189C141.992 156.738 141.892 156.212 141.892 155.61V155.6C141.892 154.994 141.992 154.468 142.192 154.021C142.393 153.573 142.674 153.226 143.036 152.979C143.401 152.731 143.829 152.608 144.319 152.608C144.584 152.608 144.833 152.651 145.066 152.737C145.302 152.819 145.512 152.936 145.694 153.086C145.877 153.236 146.02 153.415 146.124 153.623H146.21V150.411H147.145V158.5H146.21V157.576H146.124C146.006 157.791 145.857 157.975 145.678 158.129C145.499 158.28 145.295 158.396 145.066 158.479C144.837 158.561 144.588 158.602 144.319 158.602ZM144.534 157.775C144.885 157.775 145.188 157.687 145.442 157.512C145.696 157.336 145.891 157.087 146.027 156.765C146.163 156.439 146.231 156.054 146.231 155.61V155.6C146.231 155.152 146.163 154.767 146.027 154.445C145.891 154.123 145.696 153.874 145.442 153.698C145.188 153.523 144.885 153.435 144.534 153.435C144.183 153.435 143.881 153.523 143.626 153.698C143.376 153.87 143.182 154.117 143.046 154.439C142.914 154.762 142.848 155.148 142.848 155.6V155.61C142.848 156.058 142.914 156.445 143.046 156.771C143.182 157.093 143.376 157.342 143.626 157.517C143.881 157.689 144.183 157.775 144.534 157.775ZM153.67 158.5L151.527 152.71H152.516L154.1 157.479H154.186L155.771 152.71H156.759L154.616 158.5H153.67ZM159.369 158.602C159.004 158.602 158.674 158.532 158.381 158.393C158.091 158.253 157.86 158.054 157.688 157.796C157.52 157.539 157.436 157.234 157.436 156.883V156.873C157.436 156.529 157.518 156.235 157.683 155.992C157.847 155.745 158.087 155.551 158.402 155.412C158.717 155.272 159.099 155.19 159.546 155.165L161.673 155.036V155.782L159.659 155.911C159.219 155.936 158.896 156.028 158.692 156.185C158.492 156.343 158.392 156.565 158.392 156.851V156.862C158.392 157.155 158.503 157.385 158.725 157.549C158.947 157.71 159.226 157.791 159.562 157.791C159.881 157.791 160.164 157.728 160.411 157.603C160.658 157.474 160.852 157.3 160.991 157.082C161.134 156.864 161.206 156.617 161.206 156.341V154.536C161.206 154.178 161.097 153.906 160.878 153.72C160.664 153.53 160.34 153.435 159.906 153.435C159.559 153.435 159.274 153.498 159.052 153.623C158.83 153.745 158.682 153.918 158.606 154.144L158.601 154.16H157.667L157.672 154.128C157.722 153.824 157.847 153.559 158.048 153.333C158.252 153.104 158.515 152.927 158.837 152.801C159.16 152.672 159.527 152.608 159.938 152.608C160.411 152.608 160.81 152.685 161.136 152.839C161.466 152.993 161.715 153.215 161.883 153.505C162.055 153.791 162.141 154.135 162.141 154.536V158.5H161.206V157.646H161.12C160.998 157.85 160.85 158.024 160.674 158.167C160.502 158.31 160.307 158.419 160.089 158.495C159.87 158.566 159.631 158.602 159.369 158.602ZM163.849 158.5V152.71H164.783V153.569H164.869C164.98 153.265 165.168 153.029 165.433 152.86C165.698 152.692 166.026 152.608 166.416 152.608C166.506 152.608 166.593 152.613 166.679 152.624C166.769 152.631 166.837 152.638 166.883 152.646V153.553C166.787 153.535 166.692 153.523 166.599 153.516C166.509 153.505 166.412 153.5 166.309 153.5C166.011 153.5 165.748 153.559 165.519 153.677C165.29 153.795 165.109 153.96 164.977 154.171C164.848 154.382 164.783 154.629 164.783 154.912V158.5H163.849ZM168.06 158.5V152.71H168.994V158.5H168.06ZM168.532 151.593C168.357 151.593 168.205 151.53 168.076 151.405C167.95 151.276 167.888 151.124 167.888 150.948C167.888 150.769 167.95 150.617 168.076 150.492C168.205 150.366 168.357 150.304 168.532 150.304C168.711 150.304 168.863 150.366 168.989 150.492C169.114 150.617 169.177 150.769 169.177 150.948C169.177 151.124 169.114 151.276 168.989 151.405C168.863 151.53 168.711 151.593 168.532 151.593ZM172.346 158.602C171.98 158.602 171.651 158.532 171.357 158.393C171.067 158.253 170.836 158.054 170.665 157.796C170.496 157.539 170.412 157.234 170.412 156.883V156.873C170.412 156.529 170.494 156.235 170.659 155.992C170.824 155.745 171.064 155.551 171.379 155.412C171.694 155.272 172.075 155.19 172.523 155.165L174.65 155.036V155.782L172.636 155.911C172.195 155.936 171.873 156.028 171.669 156.185C171.468 156.343 171.368 156.565 171.368 156.851V156.862C171.368 157.155 171.479 157.385 171.701 157.549C171.923 157.71 172.202 157.791 172.539 157.791C172.858 157.791 173.141 157.728 173.388 157.603C173.635 157.474 173.828 157.3 173.968 157.082C174.111 156.864 174.183 156.617 174.183 156.341V154.536C174.183 154.178 174.073 153.906 173.855 153.72C173.64 153.53 173.316 153.435 172.883 153.435C172.535 153.435 172.251 153.498 172.029 153.623C171.807 153.745 171.658 153.918 171.583 154.144L171.578 154.16H170.643L170.648 154.128C170.699 153.824 170.824 153.559 171.024 153.333C171.229 153.104 171.492 152.927 171.814 152.801C172.136 152.672 172.503 152.608 172.915 152.608C173.388 152.608 173.787 152.685 174.113 152.839C174.442 152.993 174.691 153.215 174.859 153.505C175.031 153.791 175.117 154.135 175.117 154.536V158.5H174.183V157.646H174.097C173.975 157.85 173.826 158.024 173.651 158.167C173.479 158.31 173.284 158.419 173.065 158.495C172.847 158.566 172.607 158.602 172.346 158.602ZM179.704 158.602C179.436 158.602 179.187 158.561 178.958 158.479C178.728 158.396 178.524 158.28 178.345 158.129C178.166 157.975 178.018 157.791 177.899 157.576H177.813V158.5H176.879V150.411H177.813V153.623H177.899C178.007 153.415 178.15 153.236 178.329 153.086C178.512 152.936 178.719 152.819 178.952 152.737C179.188 152.651 179.439 152.608 179.704 152.608C180.195 152.608 180.621 152.731 180.982 152.979C181.348 153.226 181.631 153.573 181.831 154.021C182.032 154.468 182.132 154.994 182.132 155.6V155.61C182.132 156.212 182.032 156.738 181.831 157.189C181.631 157.637 181.348 157.984 180.982 158.231C180.621 158.479 180.195 158.602 179.704 158.602ZM179.489 157.775C179.844 157.775 180.146 157.689 180.397 157.517C180.648 157.342 180.839 157.093 180.972 156.771C181.108 156.445 181.176 156.058 181.176 155.61V155.6C181.176 155.148 181.108 154.762 180.972 154.439C180.839 154.117 180.648 153.87 180.397 153.698C180.146 153.523 179.844 153.435 179.489 153.435C179.138 153.435 178.836 153.523 178.582 153.698C178.327 153.874 178.132 154.123 177.996 154.445C177.86 154.767 177.792 155.152 177.792 155.6V155.61C177.792 156.054 177.86 156.439 177.996 156.765C178.132 157.087 178.327 157.336 178.582 157.512C178.836 157.687 179.138 157.775 179.489 157.775ZM183.636 158.5V150.411H184.57V158.5H183.636ZM188.728 158.602C188.176 158.602 187.702 158.48 187.304 158.237C186.91 157.993 186.606 157.65 186.391 157.206C186.18 156.758 186.074 156.232 186.074 155.626V155.621C186.074 155.023 186.18 154.499 186.391 154.047C186.606 153.596 186.909 153.243 187.299 152.989C187.689 152.735 188.146 152.608 188.668 152.608C189.195 152.608 189.646 152.73 190.022 152.973C190.402 153.217 190.692 153.557 190.892 153.994C191.096 154.427 191.198 154.932 191.198 155.508V155.874H186.558V155.127H190.72L190.258 155.809V155.438C190.258 154.984 190.19 154.61 190.054 154.316C189.918 154.022 189.73 153.804 189.49 153.661C189.25 153.514 188.975 153.44 188.663 153.44C188.352 153.44 188.072 153.517 187.825 153.671C187.582 153.822 187.388 154.046 187.245 154.343C187.102 154.64 187.03 155.005 187.03 155.438V155.809C187.03 156.221 187.1 156.574 187.24 156.867C187.379 157.157 187.578 157.381 187.836 157.539C188.094 157.693 188.398 157.77 188.749 157.77C189.01 157.77 189.238 157.734 189.431 157.662C189.625 157.59 189.784 157.499 189.909 157.388C190.035 157.277 190.122 157.164 190.172 157.05L190.194 157.001H191.128L191.118 157.044C191.068 157.241 190.978 157.433 190.849 157.619C190.724 157.802 190.561 157.968 190.36 158.119C190.16 158.265 189.922 158.384 189.646 158.473C189.374 158.559 189.068 158.602 188.728 158.602ZM194.636 158.602C194.206 158.602 193.826 158.538 193.497 158.409C193.168 158.276 192.903 158.092 192.702 157.855C192.505 157.619 192.389 157.342 192.353 157.023H193.309C193.388 157.263 193.542 157.456 193.771 157.603C194 157.75 194.299 157.823 194.668 157.823C194.929 157.823 195.159 157.786 195.355 157.71C195.556 157.632 195.714 157.526 195.828 157.394C195.943 157.257 196 157.102 196 156.926V156.916C196 156.719 195.921 156.552 195.764 156.416C195.606 156.276 195.348 156.164 194.99 156.078L194.093 155.863C193.732 155.777 193.434 155.666 193.202 155.53C192.969 155.39 192.797 155.22 192.686 155.02C192.575 154.815 192.52 154.576 192.52 154.3V154.294C192.52 153.972 192.613 153.684 192.799 153.43C192.989 153.175 193.246 152.975 193.572 152.828C193.898 152.681 194.265 152.608 194.673 152.608C195.078 152.608 195.436 152.672 195.748 152.801C196.063 152.927 196.315 153.106 196.505 153.338C196.698 153.571 196.816 153.845 196.859 154.16H195.941C195.88 153.931 195.74 153.745 195.522 153.602C195.304 153.458 195.019 153.387 194.668 153.387C194.439 153.387 194.235 153.424 194.056 153.5C193.877 153.571 193.735 153.671 193.631 153.8C193.528 153.929 193.476 154.08 193.476 154.251V154.262C193.476 154.391 193.51 154.506 193.578 154.606C193.646 154.706 193.751 154.794 193.895 154.869C194.038 154.944 194.222 155.011 194.448 155.068L195.339 155.283C195.884 155.415 196.288 155.605 196.553 155.852C196.822 156.099 196.956 156.43 196.956 156.846V156.856C196.956 157.2 196.854 157.505 196.65 157.77C196.446 158.031 196.168 158.235 195.817 158.382C195.47 158.529 195.076 158.602 194.636 158.602Z" fill="var(--codacy-text-muted)"/>
    <g clip-path="url(#clip1_92_9202)">
      <g clip-path="url(#clip2_92_9202)">
        <path d="M353.545 157.5C353.545 157.199 353.79 156.955 354.091 156.955H355.297C355.598 156.955 355.842 157.199 355.842 157.5V158.864C355.842 159.165 355.598 159.409 355.297 159.409H354.091C353.79 159.409 353.545 159.165 353.545 158.864V157.5Z" fill="var(--codacy-error)"/>
        <path d="M356.416 155.045C356.416 154.744 356.66 154.5 356.962 154.5H358.167C358.469 154.5 358.713 154.744 358.713 155.045V158.864C358.713 159.165 358.469 159.409 358.167 159.409H356.962C356.66 159.409 356.416 159.165 356.416 158.864V155.045Z" fill="var(--codacy-error)"/>
        <path d="M359.287 152.591C359.287 152.29 359.531 152.046 359.833 152.046H361.038C361.34 152.046 361.584 152.29 361.584 152.591V158.864C361.584 159.165 361.34 159.409 361.038 159.409H359.833C359.531 159.409 359.287 159.165 359.287 158.864V152.591Z" fill="var(--codacy-error)"/>
        <path d="M362.158 150.137C362.158 149.835 362.402 149.591 362.703 149.591H363.909C364.21 149.591 364.455 149.835 364.455 150.137V158.864C364.455 159.165 364.21 159.409 363.909 159.409H362.703C362.402 159.409 362.158 159.165 362.158 158.864V150.137Z" fill="var(--codacy-error)"/>
      </g>
    </g>
    <path d="M373.232 158.699C372.484 158.699 371.838 158.534 371.293 158.205C370.749 157.875 370.33 157.406 370.037 156.797C369.743 156.189 369.596 155.465 369.596 154.627V154.617C369.596 153.779 369.743 153.056 370.037 152.447C370.33 151.838 370.747 151.371 371.288 151.045C371.832 150.715 372.48 150.551 373.232 150.551C373.845 150.551 374.394 150.671 374.881 150.911C375.372 151.151 375.768 151.482 376.068 151.904C376.369 152.327 376.545 152.81 376.595 153.354V153.424H375.021L375.016 153.387C374.962 153.097 374.853 152.842 374.688 152.624C374.523 152.402 374.316 152.23 374.065 152.108C373.818 151.987 373.54 151.926 373.232 151.926C372.828 151.926 372.477 152.035 372.18 152.253C371.882 152.468 371.653 152.778 371.492 153.183C371.335 153.584 371.256 154.062 371.256 154.617V154.627C371.256 155.179 371.335 155.657 371.492 156.062C371.653 156.466 371.882 156.778 372.18 156.996C372.477 157.215 372.83 157.324 373.238 157.324C373.549 157.324 373.827 157.268 374.07 157.157C374.317 157.043 374.521 156.883 374.683 156.679C374.847 156.472 374.957 156.23 375.01 155.954L375.021 155.906H376.6V155.97C376.543 156.511 376.366 156.985 376.068 157.394C375.771 157.802 375.381 158.122 374.897 158.355C374.414 158.584 373.859 158.699 373.232 158.699ZM377.938 158.5V152.586H379.506V153.505H379.603C379.699 153.183 379.876 152.934 380.134 152.758C380.392 152.579 380.713 152.49 381.096 152.49C381.203 152.49 381.307 152.497 381.407 152.511C381.511 152.526 381.602 152.543 381.681 152.565V153.935C381.563 153.906 381.443 153.884 381.321 153.87C381.203 153.852 381.083 153.843 380.961 153.843C380.664 153.843 380.406 153.899 380.188 154.01C379.97 154.117 379.801 154.271 379.683 154.472C379.565 154.672 379.506 154.912 379.506 155.191V158.5H377.938ZM382.739 158.5V152.586H384.308V158.5H382.739ZM383.529 151.679C383.289 151.679 383.081 151.595 382.906 151.426C382.73 151.254 382.643 151.049 382.643 150.809C382.643 150.565 382.73 150.359 382.906 150.191C383.081 150.019 383.289 149.933 383.529 149.933C383.772 149.933 383.98 150.019 384.152 150.191C384.324 150.359 384.41 150.565 384.41 150.809C384.41 151.049 384.324 151.254 384.152 151.426C383.98 151.595 383.772 151.679 383.529 151.679ZM388.341 158.521C387.625 158.521 387.11 158.396 386.794 158.146C386.479 157.891 386.322 157.478 386.322 156.905V153.768H385.409V152.586H386.322V151.174H387.906V152.586H389.125V153.768H387.906V156.545C387.906 156.81 387.965 157.005 388.083 157.13C388.205 157.252 388.399 157.313 388.664 157.313C388.764 157.313 388.846 157.311 388.911 157.308C388.979 157.3 389.05 157.293 389.125 157.286V158.452C389.029 158.47 388.912 158.486 388.776 158.5C388.64 158.514 388.495 158.521 388.341 158.521ZM390.441 158.5V152.586H392.01V158.5H390.441ZM391.231 151.679C390.991 151.679 390.783 151.595 390.608 151.426C390.432 151.254 390.345 151.049 390.345 150.809C390.345 150.565 390.432 150.359 390.608 150.191C390.783 150.019 390.991 149.933 391.231 149.933C391.474 149.933 391.682 150.019 391.854 150.191C392.026 150.359 392.112 150.565 392.112 150.809C392.112 151.049 392.026 151.254 391.854 151.426C391.682 151.595 391.474 151.679 391.231 151.679ZM396.194 158.624C395.578 158.624 395.053 158.504 394.62 158.264C394.19 158.02 393.863 157.669 393.637 157.211C393.412 156.749 393.299 156.19 393.299 155.535V155.524C393.299 154.873 393.412 154.319 393.637 153.865C393.863 153.41 394.19 153.063 394.62 152.823C395.053 152.579 395.578 152.458 396.194 152.458C396.717 152.458 397.166 152.547 397.542 152.726C397.918 152.905 398.215 153.158 398.434 153.483C398.652 153.809 398.785 154.192 398.831 154.633V154.649H397.375L397.37 154.638C397.316 154.352 397.191 154.123 396.994 153.951C396.801 153.775 396.536 153.688 396.199 153.688C395.92 153.688 395.682 153.759 395.485 153.902C395.292 154.042 395.145 154.248 395.044 154.52C394.944 154.792 394.894 155.127 394.894 155.524V155.535C394.894 155.933 394.944 156.271 395.044 156.55C395.148 156.826 395.297 157.035 395.49 157.179C395.684 157.322 395.92 157.394 396.199 157.394C396.521 157.394 396.779 157.318 396.973 157.168C397.166 157.018 397.297 156.792 397.365 156.491L397.375 156.475L398.826 156.47V156.507C398.768 156.933 398.631 157.306 398.412 157.625C398.194 157.943 397.898 158.19 397.526 158.366C397.153 158.538 396.709 158.624 396.194 158.624ZM401.667 158.591C401.295 158.591 400.962 158.52 400.668 158.376C400.378 158.23 400.151 158.024 399.986 157.759C399.821 157.49 399.739 157.177 399.739 156.819V156.808C399.739 156.454 399.826 156.149 400.002 155.895C400.181 155.641 400.441 155.442 400.781 155.299C401.125 155.152 401.542 155.064 402.032 155.036L404.234 154.901V155.857L402.269 155.986C401.932 156.004 401.681 156.076 401.517 156.201C401.352 156.326 401.27 156.497 401.27 156.711V156.722C401.27 156.948 401.355 157.125 401.527 157.254C401.699 157.383 401.921 157.447 402.193 157.447C402.437 157.447 402.653 157.399 402.843 157.302C403.033 157.206 403.183 157.075 403.294 156.91C403.405 156.742 403.461 156.554 403.461 156.346V154.461C403.461 154.203 403.375 154.006 403.203 153.87C403.035 153.73 402.79 153.661 402.467 153.661C402.184 153.661 401.953 153.709 401.774 153.806C401.599 153.899 401.481 154.033 401.42 154.208L401.409 154.23H399.959L399.964 154.182C400.007 153.834 400.138 153.532 400.356 153.274C400.578 153.016 400.876 152.816 401.248 152.672C401.624 152.529 402.059 152.458 402.553 152.458C403.076 152.458 403.52 152.538 403.885 152.699C404.25 152.857 404.528 153.086 404.718 153.387C404.911 153.684 405.008 154.042 405.008 154.461V158.5H403.461V157.716H403.364C403.264 157.898 403.13 158.056 402.961 158.188C402.797 158.317 402.603 158.418 402.381 158.489C402.163 158.557 401.925 158.591 401.667 158.591ZM406.598 158.5V150.325H408.166V158.5H406.598Z" fill="var(--codacy-error)"/>
    <g clip-path="url(#clip3_92_9202)">
      <path d="M41.3177 169.258C41.3177 169.195 41.3177 169.135 41.3177 169.072C41.3177 166.761 41.3134 164.45 41.3177 162.134C41.3177 161.227 41.7188 160.548 42.5636 160.181C43.9078 159.599 45.5549 160.439 45.5591 162.134C45.5634 163.028 45.5591 163.922 45.5591 164.817C45.5591 164.884 45.5591 164.951 45.5591 165.027C46.6088 164.711 47.4153 165.027 48.0383 165.867C49.2288 165.217 50.4236 165.711 51.0679 167.09C51.4093 167.065 51.7378 167.006 52.0664 167.018C53.0606 167.065 53.9439 167.912 53.961 168.899C53.9866 170.43 54.0719 171.966 53.786 173.484C53.5983 174.488 53.3593 175.487 53.1161 176.483C52.8089 177.748 52.5614 179.018 52.5528 180.325C52.5528 180.747 52.2798 181 51.8488 181C49.0197 181 46.1949 181 43.3659 181C42.9349 181 42.6618 180.759 42.6575 180.333C42.649 179.616 42.3972 178.984 41.9705 178.423C41.4798 177.778 40.9507 177.158 40.477 176.5C39.4658 175.099 38.6465 173.581 37.8997 172.029C37.6266 171.459 37.3877 170.873 37.153 170.287C37.0122 169.928 36.9567 169.549 37.0122 169.161C37.1402 168.271 37.6992 167.782 38.655 167.71C39.1244 167.676 39.5383 167.824 39.9266 168.064C40.3746 168.343 40.7501 168.701 41.1 169.089C41.1555 169.152 41.2152 169.216 41.2707 169.279C41.2921 169.27 41.3049 169.262 41.3177 169.258ZM51.149 179.6C51.1575 179.486 51.1661 179.389 51.1746 179.296C51.2045 179.013 51.2087 178.727 51.2685 178.448C51.5245 177.217 51.7421 175.977 52.0707 174.766C52.5785 172.872 52.6083 170.953 52.5614 169.022C52.5528 168.726 52.3523 168.507 52.0707 168.431C51.58 168.305 51.1746 168.6 51.1575 169.102C51.149 169.363 51.1618 169.625 51.149 169.886C51.1319 170.245 50.8588 170.489 50.4919 170.502C50.0993 170.515 49.8177 170.304 49.7622 169.949C49.7494 169.861 49.7451 169.768 49.7451 169.675C49.7451 169.013 49.7494 168.355 49.7409 167.693C49.7366 167.246 49.4464 166.989 48.9984 167.006C48.593 167.022 48.3413 167.284 48.3327 167.723C48.3242 168.165 48.3327 168.612 48.3285 169.055C48.3242 169.523 48.0554 169.802 47.6201 169.802C47.1849 169.798 46.9203 169.523 46.9161 169.051C46.9118 168.418 46.9161 167.786 46.9161 167.153C46.9161 167.086 46.9161 167.018 46.9118 166.946C46.8819 166.546 46.6131 166.301 46.212 166.301C45.8066 166.301 45.525 166.546 45.5122 166.946C45.4951 167.385 45.5079 167.824 45.5037 168.262C45.5037 168.355 45.4994 168.444 45.4909 168.537C45.4482 168.861 45.1964 169.085 44.8551 169.102C44.4753 169.123 44.1851 168.929 44.1126 168.6C44.0913 168.494 44.0913 168.385 44.0913 168.275C44.0913 166.276 44.0913 164.277 44.0913 162.277C44.0913 162.214 44.0913 162.151 44.0913 162.088C44.0657 161.645 43.8011 161.396 43.3573 161.404C42.9434 161.413 42.6917 161.674 42.6789 162.105C42.6789 162.172 42.6789 162.239 42.6789 162.311C42.6789 165.681 42.6789 169.055 42.6789 172.425C42.6789 172.51 42.6789 172.598 42.6703 172.683C42.6234 173.079 42.346 173.311 41.9407 173.298C41.5438 173.286 41.2835 173.024 41.2665 172.624C41.2622 172.51 41.275 172.396 41.2622 172.282C41.2409 172.126 41.2281 171.966 41.164 171.822C40.8611 171.122 40.4514 170.481 39.9223 169.924C39.6876 169.675 39.4273 169.448 39.15 169.249C39.0177 169.152 38.8214 169.119 38.6507 169.106C38.4374 169.089 38.3563 169.182 38.3776 169.401C38.399 169.604 38.4203 169.815 38.5014 170C38.83 170.759 39.15 171.518 39.5255 172.252C40.4856 174.129 41.5609 175.939 43.0117 177.499C43.5109 178.039 43.8694 178.672 43.9846 179.41C44.0102 179.566 44.0657 179.6 44.2107 179.595C46.4637 179.591 48.7125 179.591 50.9655 179.591C51.0082 179.6 51.0679 179.6 51.149 179.6Z" fill="#171D26"/>
      <path d="M51.1497 179.6C51.0687 179.6 51.0089 179.6 50.9535 179.6C48.7004 179.6 46.4517 179.6 44.1987 179.604C44.0536 179.604 43.9981 179.575 43.9725 179.418C43.8531 178.68 43.4989 178.048 42.9996 177.508C41.5488 175.947 40.4735 174.138 39.5134 172.261C39.1379 171.527 38.8136 170.764 38.4894 170.009C38.4083 169.827 38.3869 169.612 38.3656 169.41C38.3443 169.191 38.4253 169.098 38.6387 169.115C38.8094 169.127 39.0057 169.165 39.1379 169.258C39.4153 169.456 39.6756 169.684 39.9103 169.933C40.4394 170.49 40.849 171.126 41.152 171.831C41.2117 171.974 41.2288 172.134 41.2501 172.291C41.2629 172.404 41.2501 172.518 41.2544 172.632C41.2715 173.033 41.5318 173.294 41.9286 173.307C42.334 173.32 42.6113 173.083 42.6583 172.691C42.6668 172.607 42.6668 172.523 42.6668 172.434C42.6668 169.064 42.6668 165.69 42.6668 162.32C42.6668 162.252 42.6668 162.185 42.6668 162.113C42.6796 161.679 42.9314 161.417 43.3453 161.413C43.789 161.405 44.0536 161.653 44.0792 162.096C44.0835 162.16 44.0792 162.223 44.0792 162.286C44.0792 164.285 44.0792 166.285 44.0792 168.284C44.0792 168.393 44.0792 168.503 44.1005 168.608C44.1731 168.937 44.4632 169.131 44.843 169.11C45.1844 169.094 45.4361 168.87 45.4788 168.545C45.4916 168.457 45.4916 168.364 45.4916 168.271C45.4959 167.832 45.4831 167.394 45.5001 166.955C45.5129 166.554 45.7988 166.31 46.1999 166.31C46.601 166.31 46.8699 166.559 46.8997 166.955C46.904 167.023 46.904 167.09 46.904 167.162C46.904 167.794 46.8997 168.427 46.904 169.06C46.9083 169.532 47.1728 169.811 47.6081 169.811C48.0433 169.815 48.3121 169.532 48.3164 169.064C48.3207 168.621 48.3121 168.174 48.3207 167.731C48.3292 167.293 48.581 167.031 48.9863 167.014C49.4344 166.997 49.7245 167.255 49.7288 167.702C49.7373 168.364 49.7331 169.022 49.7331 169.684C49.7331 169.777 49.7373 169.865 49.7501 169.958C49.8056 170.312 50.0915 170.528 50.4798 170.511C50.8468 170.498 51.1199 170.253 51.1369 169.895C51.1497 169.633 51.1369 169.372 51.1455 169.11C51.1625 168.608 51.5679 168.313 52.0586 168.44C52.3403 168.511 52.5451 168.735 52.5493 169.03C52.592 170.962 52.5664 172.885 52.0586 174.775C51.7301 175.985 51.5124 177.229 51.2564 178.457C51.2009 178.735 51.1924 179.022 51.1625 179.305C51.1668 179.389 51.1583 179.486 51.1497 179.6Z" fill="white"/>
    </g>
    <mask id="path-36-inside-4_92_9202" fill="white">
      <path d="M16 179H426V227H16V179Z"/>
    </mask>
    <path d="M426 227V226H16V227V228H426V227Z" fill="var(--codacy-divider)" mask="url(#path-36-inside-4_92_9202)"/>
    <path d="M36 195.5H44C45.933 195.5 47.5 197.067 47.5 199V207C47.5 208.933 45.933 210.5 44 210.5H36C34.067 210.5 32.5 208.933 32.5 207V199C32.5 197.067 34.067 195.5 36 195.5Z" fill="var(--codacy-checkbox-background)"/>
    <path d="M36 195.5H44C45.933 195.5 47.5 197.067 47.5 199V207C47.5 208.933 45.933 210.5 44 210.5H36C34.067 210.5 32.5 208.933 32.5 207V199C32.5 197.067 34.067 195.5 36 195.5Z" stroke="var(--codacy-checkbox-border)"/>
    <rect x="64" y="199" width="174" height="8" rx="4" fill="var(--codacy-placeholder)"/>
    <rect x="360" y="199" width="50" height="8" rx="4" fill="var(--codacy-placeholder)"/>
    <mask id="path-41-inside-5_92_9202" fill="white">
      <path d="M16 227H426V275H16V227Z"/>
    </mask>
    <path d="M426 275V274H16V275V276H426V275Z" fill="var(--codacy-divider)" mask="url(#path-41-inside-5_92_9202)"/>
    <path d="M36 243.5H44C45.933 243.5 47.5 245.067 47.5 247V255C47.5 256.933 45.933 258.5 44 258.5H36C34.067 258.5 32.5 256.933 32.5 255V247C32.5 245.067 34.067 243.5 36 243.5Z" fill="var(--codacy-checkbox-background)"/>
    <path d="M36 243.5H44C45.933 243.5 47.5 245.067 47.5 247V255C47.5 256.933 45.933 258.5 44 258.5H36C34.067 258.5 32.5 256.933 32.5 255V247C32.5 245.067 34.067 243.5 36 243.5Z" stroke="var(--codacy-checkbox-border)"/>
    <rect x="64" y="247" width="174" height="8" rx="4" fill="var(--codacy-placeholder)"/>
    <rect x="360" y="247" width="50" height="8" rx="4" fill="var(--codacy-placeholder)"/>
  </g>
  <defs>
    <filter id="filter0_d_92_9202" x="0" y="0" width="442" height="293" filterUnits="userSpaceOnUse" color-interpolation-filters="sRGB">
      <feFlood flood-opacity="0" result="BackgroundImageFix"/>
      <feColorMatrix in="SourceAlpha" type="matrix" values="0 0 0 0 0 0 0 0 0 0 0 0 0 0 0 0 0 0 127 0" result="hardAlpha"/>
      <feOffset dy="2"/>
      <feGaussianBlur stdDeviation="8"/>
      <feColorMatrix type="matrix" values="0 0 0 0 0 0 0 0 0 0 0 0 0 0 0 0 0 0 0.36 0"/>
      <feBlend mode="normal" in2="BackgroundImageFix" result="effect1_dropShadow_92_9202"/>
      <feBlend mode="normal" in="SourceGraphic" in2="effect1_dropShadow_92_9202" result="shape"/>
    </filter>
    <clipPath id="clip0_92_9202">
      <rect width="410" height="261" fill="white" transform="translate(16 14)"/>
    </clipPath>
    <clipPath id="clip1_92_9202">
      <rect width="12" height="12" fill="white" transform="translate(353 148.5)"/>
    </clipPath>
    <clipPath id="clip2_92_9202">
      <rect width="12" height="12" fill="white" transform="translate(353 148.5)"/>
    </clipPath>
    <clipPath id="clip3_92_9202">
      <rect width="17" height="21" fill="white" transform="translate(37 160)"/>
    </clipPath>
  </defs>
</svg>
